<svg xmlns="http://www.w3.org/2000/svg" viewBox="0 0 512 512" role="img" aria-label="Daily Motivation">
  <defs>
    <linearGradient id="grad" x1="0" x2="1" y1="0" y2="1">
      <stop offset="0%" stop-color="#ff6f61" />
      <stop offset="100%" stop-color="#ff9a8b" />
    </linearGradient>
  </defs>
  <rect width="512" height="512" rx="96" fill="url(#grad)" />
  <g fill="#ffffff">
    <path d="M162 150h188c18 0 32 14 32 32v148c0 18-14 32-32 32H162c-18 0-32-14-32-32V182c0-18 14-32 32-32zm0 24c-5 0-8 3-8 8v148c0 5 3 8 8 8h188c5 0 8-3 8-8V182c0-5-3-8-8-8H162z"/>
    <circle cx="214" cy="230" r="22" />
    <circle cx="298" cy="230" r="22" />
    <rect x="190" y="280" width="132" height="20" rx="10" />
  </g>
</svg>
